<?xml version="1.0" encoding="utf-8"?>
<!-- Generator: Adobe Illustrator 21.0.0, SVG Export Plug-In . SVG Version: 6.00 Build 0)  -->
<svg version="1.1" id="图层_1" xmlns="http://www.w3.org/2000/svg" xmlns:xlink="http://www.w3.org/1999/xlink" x="0px" y="0px"
	 viewBox="0 0 512 512" style="enable-background:new 0 0 512 512;" xml:space="preserve">
<style type="text/css">
	.st0{fill:#47D98F;}
</style>
<path class="st0" d="M365.3,163.4c0-12.8-10.9-23.2-24.4-23.2H121.3c-13.5,0-24.4,10.4-24.4,23.2s10.9,23.2,24.4,23.2h219.6
	C354.4,186.6,365.3,176.2,365.3,163.4L365.3,163.4z M121.3,232.9c-13.5,0-24.4,10.4-24.4,23.2v0.1c0,12.8,10.9,23.2,24.4,23.2h146.4
	c13.5,0,24.4-10.4,24.4-23.2v-0.1c0-12.8-10.9-23.2-24.4-23.2L121.3,232.9L121.3,232.9z M133.5,465.3h-24.4c-33.7,0-61-26-61-58.1
	V105.3c0-32.1,27.3-58.1,61-58.1h244c33.7,0,61,26,61,58.1v58.1c0,12.8,10.9,23.2,24.4,23.2s24.4-10.4,24.4-23.2V93.7
	c0-51.3-43.7-92.9-97.6-92.9H96.9C43,0.8-0.7,42.4-0.7,93.7v325.1c0,51.3,43.7,92.9,97.6,92.9h36.6c13.5,0,24.4-10.4,24.4-23.2
	C157.9,475.7,147,465.3,133.5,465.3L133.5,465.3z M490.2,253.1c-28.3-27-74.1-27-102.3,0l-158,148.5l0.1,0.1
	c-5.2,4.2-8.6,10.5-8.6,17.6v69.2c0,12.7,10.8,23.1,24.1,23.1h72.4c8.9,0,16.5-4.6,20.7-11.4l0.1,0.1L490.2,351
	C518.5,323.9,518.5,280.1,490.2,253.1L490.2,253.1z M456.1,318.3l-149,147.1h-37.4v-36.2L422,285.7c9.4-9,24.7-9,34.1,0
	S465.5,309.3,456.1,318.3L456.1,318.3z M194.5,325.9h-73.2c-13.5,0-24.4,10.4-24.4,23.2c0,12.8,10.9,23.2,24.4,23.2h73.2
	c13.5,0,24.4-10.4,24.4-23.2S208,325.9,194.5,325.9L194.5,325.9z"/>
</svg>
