<?xml version="1.0" encoding="utf-8"?>
<!-- Generator: Adobe Illustrator 21.0.0, SVG Export Plug-In . SVG Version: 6.00 Build 0)  -->
<svg version="1.1" id="图层_1" xmlns="http://www.w3.org/2000/svg" xmlns:xlink="http://www.w3.org/1999/xlink" x="0px" y="0px"
	 viewBox="0 0 512 512" style="enable-background:new 0 0 512 512;" xml:space="preserve">
<style type="text/css">
	.st0{fill:#FFFFFF;}
</style>
<path class="st0" d="M285.3,203.7c30.3-13.4,51.9-46.5,51.9-85.2c0-50.5-36.8-91.6-81.9-91.6c-45.2,0-81.9,41.1-81.9,91.6
	c0,38.6,21.5,71.7,51.9,85.2C157.9,219.3,107,286.2,107,366.2c0,19.4,12.2,25.9,22,31.1l0.6,0.3c39.5,15.6,96.7,19.8,124.2,19.8
	c30,0,88.8-5.5,127.9-20.5c14.6-6.3,22.1-16.6,22.1-30.5C403.6,286.3,352.7,219.3,285.3,203.7L285.3,203.7z"/>
<path class="st0" d="M186.6,196c-19.4-20.2-31.6-49-31.6-81c0-39.2,18.3-73.6,45.7-93.3l0,0c-0.2-0.3-0.4-0.4-0.6-0.6
	c-0.2-0.2-0.3-0.5-0.6-0.8C185,7.2,166.9,0.1,148.3,0.1c-45.2,0-81.9,41.1-81.9,91.6c0,38.6,21.5,71.7,51.9,85.2
	C50.8,192.4-0.1,259.4-0.1,339.3c0,14,7.4,24.3,22.3,30.6c22,8.5,49.2,13.4,68.7,16c-0.8-7.4-1.2-14.8-1.2-22.2
	C89.6,289.1,129.5,224.9,186.6,196L186.6,196z"/>
<path class="st0" d="M393.5,176.8c30.3-13.4,51.9-46.5,51.9-85.2c0-50.5-36.8-91.6-81.9-91.6c-18.9,0-37.4,7.4-52,20.8l-2.2,2
	c27.5,20.6,44,55.1,44,92.1c0,32-12.2,60.8-31.6,81c57.2,28.8,97,93.1,97,167.8c0,7.7-0.5,15.2-1.3,22.6l0.4-0.1
	c20-2.6,48.8-7.6,71.9-16.5c14.6-6.3,22.1-16.6,22.1-30.5C511.8,259.4,461,192.4,393.5,176.8L393.5,176.8z"/>
</svg>
