<?xml version="1.0" encoding="utf-8"?>
<!-- Generator: Adobe Illustrator 21.0.0, SVG Export Plug-In . SVG Version: 6.00 Build 0)  -->
<svg version="1.1" id="图层_1" xmlns="http://www.w3.org/2000/svg" xmlns:xlink="http://www.w3.org/1999/xlink" x="0px" y="0px"
	 viewBox="0 0 512 512" style="enable-background:new 0 0 512 512;" xml:space="preserve">
<style type="text/css">
	.st0{fill:#47D98F;}
</style>
<g>
	<path class="st0" d="M328.8,134.6H185.4c-12.4,0-22.5-10-22.5-22.5s10-22.5,22.5-22.5h143.3c12.4,0,22.5,10,22.5,22.5
		S341.1,134.6,328.8,134.6z"/>
</g>
<g>
	<path class="st0" d="M328.8,216.7H185.4c-12.4,0-22.5-10-22.5-22.5s10-22.5,22.5-22.5h143.3c12.4,0,22.5,10,22.5,22.5
		S341.1,216.7,328.8,216.7z"/>
</g>
<g>
	<path class="st0" d="M489.5,245.1H467V28.6c0-12.4-13-22.5-28.9-22.5H73.9C57.8,6.1,45,16.2,45,28.6v216.5H22.5
		C10.1,245.1,0,255.2,0,267.6v215.8c0,12.4,10.1,22.5,22.5,22.5h467c12.4,0,22.5-10.1,22.5-22.5V267.6
		C512,255.2,501.9,245.1,489.5,245.1z M408.8,51.1v193.2h-33.5v0.8H375c0,15.9-3.1,31.1-8.8,45c-17.8,43.5-60.6,74.2-110.4,74.2
		s-92.6-30.7-110.4-74.2c-4.9-12-7.9-24.9-8.6-38.5v-7.3h-34.3V51.1H408.8z M471,475.3H49V304.5h47h6c7.2,25.3,20.4,48.6,39,68.1
		c1,1,1.9,2,2.9,3c14.6,14.6,31.4,26.1,49.7,34.2c20.6,9.1,43.1,13.9,66.4,13.9c23.2,0,45.7-4.8,66.4-13.9
		c18.3-8.1,35.2-19.6,49.7-34.2c1.2-1.2,2.3-2.3,3.4-3.5c18.3-19.4,31.4-42.5,38.5-67.6h6.6H471V475.3z"/>
</g>
</svg>
