<?xml version="1.0" encoding="utf-8"?>
<!-- Generator: Adobe Illustrator 21.0.0, SVG Export Plug-In . SVG Version: 6.00 Build 0)  -->
<svg version="1.1" id="图层_1" xmlns="http://www.w3.org/2000/svg" xmlns:xlink="http://www.w3.org/1999/xlink" x="0px" y="0px"
	 viewBox="0 0 512 512" style="enable-background:new 0 0 512 512;" xml:space="preserve">
<style type="text/css">
	.st0{fill:#47D98F;}
</style>
<path class="st0" d="M512,67.6c0,9.1-2.6,17.7-7.2,24.1c-4.6,6.4-10.9,10-17.5,10H166.7c-6.6,0-12.8-3.6-17.5-10
	c-4.6-6.4-7.2-15.1-7.2-24.1V34.2c0-9.1,2.6-17.7,7.2-24.1c4.6-6.4,10.9-10,17.5-10h320.6c6.6,0,12.8,3.6,17.5,10
	c4.6,6.4,7.2,15.1,7.2,24.1V67.6z M512,238.2c0-9.1-2.6-17.7-7.2-24.1c-4.6-6.4-10.9-10-17.5-10H166.7c-6.6,0-12.8,3.6-17.5,10
	c-4.6,6.4-7.2,15.1-7.2,24.1v33.4c0,9.1,2.6,17.7,7.2,24.1c4.6,6.4,10.9,10,17.5,10h320.6c6.6,0,12.8-3.6,17.5-10
	c4.6-6.4,7.2-15.1,7.2-24.1V238.2z M512,443.5c0-9.1-2.6-17.7-7.2-24.1s-10.9-10-17.5-10H166.7c-13.7,0-24.7,15.3-24.7,34.1v33.4
	c0,18.9,11.1,34.1,24.7,34.1h320.6c6.6,0,12.8-3.6,17.5-10c4.6-6.4,7.2-15.1,7.2-24.1V443.5z M94.2,34.2c0-9.1-3.3-17.7-9.2-24.1
	C79,3.6,70.9,0,62.6,0h-31C23.2,0,15.2,3.6,9.3,10S0,25.1,0,34.2v33.4c0,9.1,3.3,17.7,9.3,24.1c5.9,6.4,14,10,22.4,10h30.9
	c8.4,0,16.4-3.6,22.4-10c5.9-6.4,9.3-15.1,9.3-24.1L94.2,34.2L94.2,34.2z M94.2,238.2c0-9.1-3.3-17.7-9.3-24.1
	c-5.9-6.4-14-10-22.4-10H31.6c-8.4,0-16.4,3.6-22.4,10c-5.9,6.3-9.2,15-9.2,24.1v33.4c0,9.1,3.3,17.7,9.3,24.1
	c5.9,6.4,14,10,22.4,10h30.9c8.4,0,16.4-3.6,22.4-10c5.9-6.4,9.3-15.1,9.3-24.1L94.2,238.2L94.2,238.2z M94.2,443.5
	c0-9.1-3.3-17.7-9.3-24.1c-5.9-6.4-14-10-22.4-10H31.6C14.2,409.4,0,424.7,0,443.5v33.4c0,9.1,3.3,17.7,9.3,24.1
	c5.9,6.4,14,10,22.4,10h30.9c8.4,0,16.4-3.6,22.4-10s9.3-15.1,9.3-24.1L94.2,443.5L94.2,443.5z"/>
</svg>
