<?xml version="1.0" encoding="utf-8"?>
<!-- Generator: Adobe Illustrator 21.0.0, SVG Export Plug-In . SVG Version: 6.00 Build 0)  -->
<svg version="1.1" id="图层_1" xmlns="http://www.w3.org/2000/svg" xmlns:xlink="http://www.w3.org/1999/xlink" x="0px" y="0px"
	 viewBox="0 0 512 512" style="enable-background:new 0 0 512 512;" xml:space="preserve">
<style type="text/css">
	.st0{fill:#FFFFFF;}
</style>
<path class="st0" d="M73.5,435.7C26.3,387.9-0.2,323.3-0.1,256.1C-0.1,114.9,114.5,0.3,255.7,0.3c141.3,0,255.8,114.5,255.8,255.8
	c0,70-28.1,133.4-73.6,179.6c-48,48.9-113.7,76.3-182.2,76.2C187.2,512,121.6,484.5,73.5,435.7L73.5,435.7z M88.6,401.7
	c25.2-44.6,67.1-77.3,116.4-90.9c-40.3-23-60-70.3-48.1-115.1s52.5-76.1,98.9-76.1s87,31.2,98.9,76.1c11.9,44.8-7.8,92.1-48.1,115.1
	c49.8,13.6,91.5,46.8,116.4,90.9c35.2-40.3,54.6-92.1,54.5-145.6c0-122.4-99.3-221.7-221.7-221.7C133.3,34.4,34,133.7,34,256.1
	C34,309.7,53.3,361.4,88.6,401.7L88.6,401.7z"/>
</svg>
