<?xml version="1.0" encoding="utf-8"?>
<!-- Generator: Adobe Illustrator 21.0.0, SVG Export Plug-In . SVG Version: 6.00 Build 0)  -->
<svg version="1.1" id="图层_1" xmlns="http://www.w3.org/2000/svg" xmlns:xlink="http://www.w3.org/1999/xlink" x="0px" y="0px"
	 viewBox="0 0 512 512" style="enable-background:new 0 0 512 512;" xml:space="preserve">
<style type="text/css">
	.st0{fill:#FFFFFF;}
</style>
<g>
	<path class="st0" d="M460.8,409.6c0,28.3-22.9,51.2-51.2,51.2H102.4c-28.3,0-51.2-22.9-51.2-51.2V102.4c0-28.3,22.9-51.2,51.2-51.2
		h204.8L358.4,0H85.3C38.2,0,0,38.2,0,85.3v341.3C0,473.8,38.2,512,85.3,512h341.3c47.1,0,85.3-38.2,85.3-85.3V153.6l-51.2,51.2
		v204.8H460.8z"/>
	<polygon class="st0" points="467.9,125.2 386.1,43.9 206,222.8 287.8,304.2 	"/>
	<polygon class="st0" points="161.9,348 276.4,315.5 194.6,234.2 	"/>
	<path class="st0" d="M454.8,6c-8.5-8.4-22.7-8-31.7,1l-24.6,24.4l81.8,81.3l24.6-24.4c9-9,9.5-23.1,1-31.5L454.8,6z"/>
</g>
</svg>
