<?xml version="1.0" encoding="utf-8"?>
<!-- Generator: Adobe Illustrator 21.0.0, SVG Export Plug-In . SVG Version: 6.00 Build 0)  -->
<svg version="1.1" id="图层_1" xmlns="http://www.w3.org/2000/svg" xmlns:xlink="http://www.w3.org/1999/xlink" x="0px" y="0px"
	 viewBox="0 0 512 512" style="enable-background:new 0 0 512 512;" xml:space="preserve">
<style type="text/css">
	.st0{fill:#47D98F;}
</style>
<g>
	<path class="st0" d="M1,35.1v339.5c0,19.3,15.6,34.9,34.9,34.9h442.3c19.3,0,34.9-15.6,34.9-34.9V35.1c0-19.3-15.6-34.9-34.9-34.9
		H35.9C16.6,0.3,1,15.9,1,35.1z M423.4,352.7H90.6c-17.6,0-31.8-14.2-31.8-31.8V85.1c0-17.6,14.2-31.8,31.8-31.8h332.8
		c17.6,0,31.8,14.2,31.8,31.8v235.8C455.2,338.5,441,352.7,423.4,352.7z"/>
</g>
<path class="st0" d="M373.3,434.7H140.7c-4.7,0-8.5,3.8-8.5,8.5v49.1c0,4.7,3.8,8.5,8.5,8.5h232.6c4.7,0,8.5-3.8,8.5-8.5v-49.1
	C381.8,438.5,378,434.7,373.3,434.7z"/>
<rect x="203.8" y="403.5" class="st0" width="104.6" height="31.2"/>
<g>
	<path class="st0" d="M228.7,190.8h-86.1c-7.6,0-13.8-6.2-13.8-13.8V90.9c0-7.6,6.2-13.8,13.8-13.8h86.1c7.6,0,13.8,6.2,13.8,13.8
		V177C242.4,184.6,236.3,190.8,228.7,190.8z"/>
	<path class="st0" d="M228.7,332.7h-86.1c-7.6,0-13.8-6.2-13.8-13.8v-86.1c0-7.6,6.2-13.8,13.8-13.8h86.1c7.6,0,13.8,6.2,13.8,13.8
		v86.1C242.4,326.5,236.3,332.7,228.7,332.7z"/>
	<path class="st0" d="M271.6,177V90.9c0-7.6,6.2-13.8,13.8-13.8h86.1c7.6,0,13.8,6.2,13.8,13.8V177c0,7.6-6.2,13.8-13.8,13.8h-86.1
		C277.7,190.8,271.6,184.6,271.6,177z"/>
	<path class="st0" d="M371.5,332.7h-86.1c-7.6,0-13.8-6.2-13.8-13.8v-86.1c0-7.6,6.2-13.8,13.8-13.8h86.1c7.6,0,13.8,6.2,13.8,13.8
		v86.1C385.2,326.5,379.1,332.7,371.5,332.7z"/>
</g>
</svg>
